<svg width="302" height="36" viewBox="0 0 302 36" fill="none" xmlns="http://www.w3.org/2000/svg">
<g clip-path="url(#clip0_239_6550)">
<path d="M47.1453 10.4753H50.5864V17.1008H53.0377L58.114 10.4753H62.0442L55.9839 18.2596L62.5362 27.3696H58.2848L53.2056 20.2467H50.5864V27.3696H47.1453V10.4753Z" fill="white"/>
<path d="M67.6214 10.4753H74.9869L79.5712 27.3696H75.9739L72.3707 13.6212H70.2435L66.6374 27.3696H63.0342L67.6214 10.4753Z" fill="white"/>
<path d="M82.0371 10.4752H85.4753V17.2645H87.7704C88.5541 13.1236 91.8627 10.1445 96.1229 10.1445C100.872 10.1445 104.64 13.9845 104.64 18.9208C104.64 23.8571 100.872 27.7001 96.1229 27.7001C94.099 27.6958 92.1438 26.9584 90.6114 25.6216C89.0791 24.2847 88.0712 22.437 87.7704 20.4133H85.4753V27.3694H82.0371V10.4752ZM96.1229 24.5513C98.907 24.5513 101.037 22.3676 101.037 18.9208C101.037 15.4741 98.907 13.2934 96.1229 13.2934C93.3387 13.2934 91.2086 15.48 91.2086 18.9238C91.2086 22.3676 93.3387 24.5513 96.1229 24.5513Z" fill="white"/>
<path d="M107.425 10.4753H110.866V16.4335C110.866 18.4205 112.012 19.5823 114.142 19.5823C115.211 19.617 116.278 19.4482 117.285 19.0848C117.631 18.9807 117.954 18.812 118.237 18.5873V10.4753H121.684V27.3696H118.237V21.5723C117.891 21.8162 117.517 22.0163 117.123 22.1681C116.065 22.563 114.943 22.754 113.815 22.7312C109.72 22.7312 107.425 20.4463 107.425 16.7731V10.4753Z" fill="white"/>
<path d="M132.815 10.1445C134.211 10.1442 135.572 10.5836 136.709 11.4017C137.209 11.7486 137.661 12.1613 138.053 12.6291H138.218V10.4752H141.659V27.3694H138.221V25.0488H138.056C137.676 25.5558 137.223 26.0027 136.712 26.3744C135.589 27.2313 134.222 27.6965 132.815 27.7001C128.395 27.7001 124.951 24.2206 124.951 18.9208C124.951 13.6211 128.392 10.1445 132.815 10.1445ZM133.469 24.5513C136.253 24.5513 138.221 22.597 138.221 18.9208C138.221 15.2447 136.253 13.2934 133.469 13.2934C130.49 13.2934 128.557 15.2477 128.557 18.9238C128.557 22.6 130.49 24.5513 133.469 24.5513Z" fill="white"/>
<path d="M145.92 10.4753H154.272C157.548 10.4753 159.351 12.2628 159.351 14.6162C159.351 16.2041 158.694 17.1008 158.04 17.631C157.655 17.9372 157.207 18.152 156.729 18.2596V18.3907C157.317 18.488 157.876 18.7148 158.367 19.055C159.186 19.6181 160.005 20.6429 160.005 22.5316C160.005 25.2127 157.843 27.3696 154.437 27.3696H145.92V10.4753ZM153.945 17.1008C155.256 17.1008 155.91 16.505 155.91 15.2776C155.91 14.2498 155.256 13.6212 153.945 13.6212H149.358V17.1008H153.945ZM154.272 24.2207C155.745 24.2207 156.567 23.3925 156.567 22.0698C156.567 20.908 155.748 20.0798 154.272 20.0798H149.358V24.2207H154.272Z" fill="white"/>
<path d="M161.643 10.4753H176.221V13.6212H170.653V27.3696H167.212V13.6212H161.643V10.4753Z" fill="white"/>
<path d="M186.377 10.1448C188.094 10.1442 189.773 10.6586 191.202 11.6231C192.63 12.5875 193.743 13.9586 194.401 15.563C195.058 17.1673 195.23 18.9328 194.895 20.6361C194.561 22.3394 193.734 23.9039 192.519 25.1319C191.305 26.3599 189.757 27.1961 188.073 27.5348C186.388 27.8734 184.642 27.6993 183.056 27.0345C181.469 26.3696 180.113 25.2439 179.159 23.7997C178.205 22.3555 177.697 20.6577 177.697 18.9211C177.683 17.7644 177.897 16.6166 178.328 15.5451C178.759 14.4736 179.398 13.5002 180.207 12.6823C181.016 11.8644 181.978 11.2185 183.038 10.7826C184.098 10.3468 185.233 10.1299 186.377 10.1448ZM186.377 24.5515C189.358 24.5515 191.456 22.3678 191.456 18.9211C191.456 15.4743 189.358 13.2936 186.377 13.2936C183.395 13.2936 181.3 15.4802 181.3 18.924C181.3 22.3678 183.395 24.5515 186.377 24.5515Z" fill="white"/>
<path d="M34.5621 16.1682L31.2594 17.2526L13.6588 23.032C12.8543 23.2958 11.9792 23.226 11.2257 22.8377C10.4722 22.4495 9.90189 21.7747 9.64017 20.9615L9.59009 20.8066L12.6217 19.8116L31.0119 13.773L34.2527 12.7065C34.402 13.8565 34.5051 15.0103 34.5621 16.1682Z" fill="white"/>
<path d="M34.6154 20.491C34.583 21.7034 34.5034 22.9189 34.3826 24.1284C34.2707 25.2585 34.1214 26.3835 33.9348 27.5037L33.8906 27.7777C33.551 29.6214 32.6691 31.3186 31.3603 32.6473C30.0514 33.9761 28.3765 34.8746 26.5546 35.2254H26.5398L26.2099 35.282C20.6508 36.2234 14.9756 36.2234 9.41655 35.282L9.08658 35.2254C7.26445 34.875 5.58936 33.9766 4.28045 32.6478C2.97155 31.319 2.08979 29.6216 1.75055 27.7777C1.73287 27.6854 1.71814 27.596 1.70341 27.5037C0.766506 21.8661 0.766506 16.11 1.70341 10.4724C1.70341 10.38 1.73287 10.2877 1.75055 10.1953C2.09309 8.34557 2.9815 6.64403 4.29885 5.31465C5.61619 3.98527 7.30074 3.09036 9.13077 2.74769C14.7882 1.7829 20.5637 1.76278 26.2276 2.68811L26.5015 2.73279C28.0482 3.0221 29.4961 3.70626 30.7078 4.72034C31.9196 5.73442 32.8549 7.04478 33.4251 8.52706L30.2521 9.56973L13.6591 15.0184C13.2608 15.1495 12.8408 15.1999 12.4232 15.1667C12.0057 15.1336 11.5986 15.0176 11.2254 14.8253C10.8522 14.633 10.5201 14.3682 10.2482 14.0461C9.97623 13.724 9.76972 13.3508 9.64046 12.948L9.59038 12.7931L12.622 11.804L27.9216 6.77835C27.2267 6.3754 26.4698 6.09343 25.6825 5.94422C23.0822 5.50177 20.4501 5.27856 17.8132 5.27691C15.098 5.29103 12.3884 5.52815 9.71117 5.98592C8.54835 6.21326 7.48027 6.78964 6.64623 7.6399C5.81218 8.49015 5.25089 9.57481 5.03556 10.7524L4.99431 10.9907C4.1193 16.2896 4.1193 21.6984 4.99431 26.9972L5.02672 27.1938V27.2356C5.24087 28.4107 5.79955 29.4937 6.6302 30.3437C7.46084 31.1937 8.52507 31.7715 9.68466 32.0021L9.90267 32.0408H9.9616C12.5531 32.4822 15.1764 32.7045 17.8044 32.7051C20.4333 32.7043 23.0576 32.4821 25.6501 32.0408H25.709L25.927 32.0021C27.0866 31.7715 28.1509 31.1937 28.9815 30.3437C29.8121 29.4937 30.3708 28.4107 30.585 27.2356L30.6233 26.9972C30.7176 26.4253 30.803 25.8563 30.8766 25.2843L18.0371 29.4996C17.6379 29.63 17.2171 29.6794 16.7989 29.6451C16.3807 29.6108 15.9734 29.4934 15.6001 29.2997C15.2268 29.106 14.895 28.8398 14.6236 28.5163C14.3522 28.1927 14.1466 27.8183 14.0185 27.4143L13.9684 27.2594L17.0001 26.2644L31.2184 21.5902L34.6154 20.491Z" fill="white"/>
<path d="M237.712 10.1194C237.847 10.1194 237.982 10.2524 237.982 10.3854V25.5505C237.982 25.6836 237.847 25.8166 237.712 25.8166H237.172C237.037 25.8166 236.902 25.6836 236.902 25.5505V11.0505H230.292L227.594 23.023C227.189 24.8854 226.11 25.9496 224.356 25.9496H224.221C224.086 25.9496 223.951 25.8166 223.951 25.6836V25.1515C223.951 25.0184 224.086 24.8854 224.221 24.8854H224.491C225.57 24.8854 226.38 24.0872 226.649 23.023L229.482 10.2524C229.482 10.1194 229.617 9.98633 229.887 9.98633H237.712V10.1194Z" fill="white"/>
<path d="M251.472 14.376C251.607 14.376 251.742 14.509 251.742 14.642V25.5503C251.742 25.6833 251.607 25.8163 251.472 25.8163H251.068C250.933 25.8163 250.798 25.6833 250.798 25.5503V15.7063H250.663L243.917 25.5503C243.783 25.6833 243.648 25.8163 243.513 25.8163H242.838C242.703 25.8163 242.568 25.6833 242.568 25.5503V14.642C242.568 14.509 242.703 14.376 242.838 14.376H243.243C243.378 14.376 243.513 14.509 243.513 14.642V24.4861H243.648L250.393 14.642C250.528 14.509 250.663 14.376 250.798 14.376H251.472Z" fill="white"/>
<path d="M264.423 17.3025C264.423 19.431 262.669 19.697 262.669 19.697V19.9631C262.669 19.9631 264.693 20.3622 264.693 22.4906V22.8897C264.693 24.7521 263.614 25.9493 261.455 25.9493H258.892C256.598 25.9493 255.384 24.7521 255.384 22.6236V22.2245C255.384 22.0915 255.519 21.9585 255.654 21.9585H256.059C256.194 21.9585 256.329 22.0915 256.329 22.2245V22.6236C256.329 24.22 257.273 25.1512 258.892 25.1512H261.455C262.939 25.1512 263.749 24.353 263.749 23.0227V22.6236C263.749 21.2934 262.939 20.4952 261.455 20.4952H259.701C259.566 20.4952 259.431 20.3622 259.431 20.2291V19.8301C259.431 19.697 259.566 19.564 259.701 19.564H261.185C262.669 19.564 263.479 18.7658 263.479 17.4356V17.1695C263.479 15.8392 262.669 15.0411 261.185 15.0411H259.027C257.273 15.0411 256.464 15.9722 256.464 17.4356V17.8346C256.464 17.9677 256.329 18.1007 256.194 18.1007H255.789C255.654 18.1007 255.519 17.9677 255.519 17.8346V17.4356C255.519 15.3071 256.733 14.1099 259.027 14.1099H261.185C263.209 14.1099 264.423 15.1741 264.423 17.1695V17.3025Z" fill="white"/>
<path d="M277.239 14.376C277.374 14.376 277.509 14.509 277.509 14.642V25.5503C277.509 25.6833 277.374 25.8163 277.239 25.8163H276.835C276.7 25.8163 276.565 25.6833 276.565 25.5503V15.7063H276.43L269.685 25.5503C269.55 25.6833 269.415 25.8163 269.28 25.8163H268.605C268.47 25.8163 268.335 25.6833 268.335 25.5503V14.642C268.335 14.509 268.47 14.376 268.605 14.376H269.01C269.145 14.376 269.28 14.509 269.28 14.642V24.4861H269.415L276.16 14.642C276.295 14.509 276.43 14.376 276.565 14.376H277.239Z" fill="white"/>
<path d="M281.557 14.5097C281.557 14.3767 281.692 14.2437 281.826 14.2437H282.231C282.366 14.2437 282.501 14.3767 282.501 14.5097V19.4317H289.516V14.5097C289.516 14.3767 289.651 14.2437 289.786 14.2437H290.191C290.326 14.2437 290.461 14.3767 290.461 14.5097V25.418C290.461 25.551 290.326 25.684 290.191 25.684H289.786C289.651 25.684 289.516 25.551 289.516 25.418V20.2299H282.501V25.418C282.501 25.551 282.366 25.684 282.231 25.684H281.826C281.692 25.684 281.557 25.551 281.557 25.418V14.5097Z" fill="white"/>
<path d="M302.197 15.0411C302.197 15.1741 302.062 15.3072 301.927 15.3072H295.317V25.5503C295.317 25.6833 295.182 25.8163 295.047 25.8163H294.642C294.507 25.8163 294.373 25.6833 294.373 25.5503V14.642C294.373 14.509 294.507 14.376 294.642 14.376H301.927C302.062 14.376 302.197 14.509 302.197 14.642V15.0411Z" fill="white"/>
<path d="M211 2V36H212V2" fill="white"/>
</g>
<defs>
<clipPath id="clip0_239_6550">
<rect width="302" height="36" fill="white"/>
</clipPath>
</defs>
</svg>
