<svg width="201" height="36" viewBox="0 0 201 36" fill="none" xmlns="http://www.w3.org/2000/svg">
<path d="M47.1453 10.4755H50.5864V17.1009H53.0377L58.114 10.4755H62.0442L55.9839 18.2597L62.5362 27.3697H58.2848L53.2056 20.2468H50.5864V27.3697H47.1453V10.4755Z" fill="white"/>
<path d="M67.6214 10.4755H74.9869L79.5712 27.3697H75.9739L72.3707 13.6213H70.2435L66.6374 27.3697H63.0342L67.6214 10.4755Z" fill="white"/>
<path d="M82.0371 10.4755H85.4753V17.2647H87.7704C88.5541 13.1238 91.8627 10.1448 96.1229 10.1448C100.872 10.1448 104.64 13.9848 104.64 18.9211C104.64 23.8574 100.872 27.7004 96.1229 27.7004C94.099 27.696 92.1438 26.9586 90.6114 25.6218C89.0791 24.285 88.0712 22.4373 87.7704 20.4136H85.4753V27.3697H82.0371V10.4755ZM96.1229 24.5515C98.907 24.5515 101.037 22.3679 101.037 18.9211C101.037 15.4743 98.907 13.2936 96.1229 13.2936C93.3387 13.2936 91.2086 15.4803 91.2086 18.9241C91.2086 22.3679 93.3387 24.5515 96.1229 24.5515Z" fill="white"/>
<path d="M107.425 10.4755H110.866V16.4336C110.866 18.4206 112.012 19.5824 114.142 19.5824C115.211 19.6171 116.278 19.4483 117.285 19.0849C117.631 18.9808 117.954 18.8121 118.237 18.5874V10.4755H121.684V27.3697H118.237V21.5725C117.891 21.8163 117.517 22.0164 117.123 22.1683C116.065 22.5631 114.943 22.7541 113.815 22.7313C109.72 22.7313 107.425 20.4464 107.425 16.7732V10.4755Z" fill="white"/>
<path d="M132.815 10.1448C134.211 10.1444 135.572 10.5839 136.709 11.4019C137.209 11.7488 137.661 12.1616 138.053 12.6293H138.218V10.4755H141.659V27.3697H138.221V25.049H138.056C137.676 25.5561 137.223 26.0029 136.712 26.3747C135.589 27.2315 134.222 27.6967 132.815 27.7004C128.395 27.7004 124.951 24.2208 124.951 18.9211C124.951 13.6213 128.392 10.1448 132.815 10.1448ZM133.469 24.5515C136.253 24.5515 138.221 22.5972 138.221 18.9211C138.221 15.2449 136.253 13.2936 133.469 13.2936C130.49 13.2936 128.557 15.2479 128.557 18.9241C128.557 22.6002 130.49 24.5515 133.469 24.5515Z" fill="white"/>
<path d="M145.92 10.4755H154.272C157.548 10.4755 159.351 12.2629 159.351 14.6164C159.351 16.2042 158.694 17.1009 158.04 17.6312C157.655 17.9373 157.207 18.1521 156.729 18.2597V18.3908C157.317 18.4881 157.876 18.7149 158.367 19.0552C159.186 19.6182 160.005 20.643 160.005 22.5317C160.005 25.2129 157.843 27.3697 154.437 27.3697H145.92V10.4755ZM153.945 17.1009C155.256 17.1009 155.91 16.5051 155.91 15.2777C155.91 14.2499 155.256 13.6213 153.945 13.6213H149.358V17.1009H153.945ZM154.272 24.2208C155.745 24.2208 156.567 23.3927 156.567 22.07C156.567 20.9081 155.748 20.0799 154.272 20.0799H149.358V24.2208H154.272Z" fill="white"/>
<path d="M161.643 10.4755H176.221V13.6213H170.653V27.3697H167.212V13.6213H161.643V10.4755Z" fill="white"/>
<path d="M186.377 10.1448C188.094 10.1442 189.773 10.6586 191.202 11.6231C192.63 12.5875 193.743 13.9586 194.401 15.563C195.058 17.1673 195.23 18.9328 194.895 20.6361C194.561 22.3394 193.734 23.9039 192.519 25.1319C191.305 26.3599 189.757 27.1961 188.073 27.5348C186.388 27.8734 184.642 27.6993 183.056 27.0345C181.469 26.3696 180.113 25.2439 179.159 23.7997C178.205 22.3555 177.697 20.6577 177.697 18.9211C177.683 17.7644 177.897 16.6166 178.328 15.5451C178.759 14.4736 179.398 13.5002 180.207 12.6823C181.016 11.8644 181.978 11.2185 183.038 10.7826C184.098 10.3468 185.233 10.1299 186.377 10.1448ZM186.377 24.5515C189.358 24.5515 191.456 22.3678 191.456 18.9211C191.456 15.4743 189.358 13.2936 186.377 13.2936C183.395 13.2936 181.3 15.4802 181.3 18.924C181.3 22.3678 183.395 24.5515 186.377 24.5515Z" fill="white"/>
<path d="M34.5621 16.1685L31.2594 17.2528L13.6588 23.0322C12.8543 23.2961 11.9792 23.2262 11.2257 22.838C10.4722 22.4497 9.90189 21.7749 9.64017 20.9618L9.59009 20.8068L12.6217 19.8118L31.0119 13.7733L34.2527 12.7068C34.402 13.8567 34.5051 15.0106 34.5621 16.1685Z" fill="white"/>
<path d="M34.6154 20.4911C34.583 21.7036 34.5034 22.919 34.3826 24.1285C34.2707 25.2586 34.1214 26.3837 33.9348 27.5038L33.8906 27.7779C33.551 29.6215 32.6691 31.3187 31.3603 32.6475C30.0514 33.9762 28.3765 34.8747 26.5546 35.2255H26.5398L26.2099 35.2821C20.6508 36.2235 14.9756 36.2235 9.41655 35.2821L9.08658 35.2255C7.26445 34.8751 5.58936 33.9767 4.28045 32.6479C2.97155 31.3191 2.08979 29.6217 1.75055 27.7779C1.73287 27.6855 1.71814 27.5961 1.70341 27.5038C0.766506 21.8662 0.766506 16.1101 1.70341 10.4725C1.70341 10.3802 1.73287 10.2878 1.75055 10.1955C2.09309 8.3457 2.9815 6.64416 4.29885 5.31477C5.61619 3.98539 7.30074 3.09048 9.13077 2.74781C14.7882 1.78303 20.5637 1.7629 26.2276 2.68823L26.5015 2.73291C28.0482 3.02222 29.4961 3.70638 30.7078 4.72046C31.9196 5.73454 32.8549 7.0449 33.4251 8.52718L30.2521 9.56985L13.6591 15.0186C13.2608 15.1496 12.8408 15.2 12.4232 15.1669C12.0057 15.1337 11.5986 15.0177 11.2254 14.8254C10.8522 14.6331 10.5201 14.3684 10.2482 14.0463C9.97623 13.7241 9.76972 13.351 9.64046 12.9481L9.59038 12.7932L12.622 11.8041L27.9216 6.77848C27.2267 6.37552 26.4698 6.09355 25.6825 5.94434C23.0822 5.50189 20.4501 5.27868 17.8132 5.27703C15.098 5.29115 12.3884 5.52827 9.71117 5.98605C8.54835 6.21338 7.48027 6.78976 6.64623 7.64002C5.81218 8.49027 5.25089 9.57494 5.03556 10.7525L4.99431 10.9909C4.1193 16.2897 4.1193 21.6985 4.99431 26.9974L5.02672 27.194V27.2357C5.24087 28.4109 5.79955 29.4938 6.6302 30.3438C7.46084 31.1938 8.52507 31.7716 9.68466 32.0022L9.90267 32.0409H9.9616C12.5531 32.4824 15.1764 32.7046 17.8044 32.7052C20.4333 32.7045 23.0576 32.4822 25.6501 32.0409H25.709L25.927 32.0022C27.0866 31.7716 28.1509 31.1938 28.9815 30.3438C29.8121 29.4938 30.3708 28.4109 30.585 27.2357L30.6233 26.9974C30.7176 26.4254 30.803 25.8564 30.8766 25.2844L18.0371 29.4998C17.6379 29.6301 17.2171 29.6795 16.7989 29.6452C16.3807 29.6109 15.9734 29.4936 15.6001 29.2999C15.2268 29.1062 14.895 28.8399 14.6236 28.5164C14.3522 28.1929 14.1466 27.8184 14.0185 27.4144L13.9684 27.2595L17.0001 26.2645L31.2184 21.5904L34.6154 20.4911Z" fill="white"/>
</svg>
