<?xml version="1.0" encoding="utf-8"?>
<!-- Generator: Adobe Illustrator 15.1.0, SVG Export Plug-In . SVG Version: 6.00 Build 0)  -->
<!DOCTYPE svg PUBLIC "-//W3C//DTD SVG 1.1//EN" "http://www.w3.org/Graphics/SVG/1.1/DTD/svg11.dtd">
<svg version="1.1" id="Слой_1" xmlns="http://www.w3.org/2000/svg" xmlns:xlink="http://www.w3.org/1999/xlink" x="0px" y="0px"
	 width="340.158px" height="340.158px" viewBox="0 0 340.158 340.158" enable-background="new 0 0 340.158 340.158"
	 xml:space="preserve">
<g>
	<g>
		<path fill="#2E2D2C" d="M296.015,242.279c-0.02,0.115-0.037,0.235-0.059,0.351"/>
		<path fill="#2E2D2C" d="M301.367,151.333l-26.328,8.555l-140.344,45.577c-13.354,4.344-27.699-2.969-32.035-16.321l-0.399-1.223
			l24.182-7.852l146.625-47.619l25.872-8.4C300.064,133.125,300.872,142.222,301.367,151.333"/>
		<path fill="#2E2D2C" d="M301.808,185.423c-0.272,9.576-0.897,19.146-1.856,28.688c-0.892,8.907-2.08,17.784-3.566,26.631v0.007
			c-0.114,0.724-0.239,1.442-0.37,2.165c-5.455,29.729-28.82,53.19-58.494,58.787c-0.03,0.007-0.064,0.011-0.098,0.02
			c-0.878,0.151-1.762,0.298-2.64,0.445c-44.321,7.425-89.567,7.425-133.894,0c-0.879-0.147-1.762-0.294-2.641-0.445l-0.095-0.02
			c-29.674-5.597-53.042-29.06-58.497-58.787c-0.125-0.723-0.255-1.441-0.368-2.165v-0.007c-7.471-44.459-7.471-89.856,0-134.314
			v-0.009c0.113-0.723,0.244-1.441,0.368-2.165c5.474-29.843,29.008-53.373,58.846-58.85c0.729-0.126,1.444-0.251,2.17-0.366h0.003
			c44.458-7.471,89.86-7.471,134.319,0H235c0.728,0.115,1.444,0.24,2.169,0.366c15.923,2.92,30.044,10.979,40.588,22.404
			c6.223,6.732,11.201,14.644,14.559,23.353l-25.291,8.213l-132.325,42.971c-13.354,4.339-27.698-2.969-32.034-16.322l-0.399-1.217
			l24.178-7.86L248.427,77.33c-4.818-3.025-10.217-5.184-15.98-6.258l-1.877-0.316c-20.666-3.498-41.775-5.267-62.732-5.267
			c-20.959,0-42.069,1.769-62.733,5.267l-1.539,0.261c-0.102,0.019-0.338,0.056-0.338,0.056
			c-18.818,3.518-33.792,18.577-37.283,37.517l-0.32,1.888c-6.992,41.877-6.992,84.338,0,126.216l0.262,1.552
			c0.011,0.096,0.058,0.337,0.058,0.337c3.479,18.864,18.393,33.92,37.138,37.488c0.58,0.102,1.165,0.197,1.743,0.292l0.476,0.083
			c20.608,3.473,41.649,5.234,62.536,5.234c20.889,0,41.928-1.763,62.551-5.241l0.459-0.076c0.584-0.095,1.165-0.19,1.742-0.292
			c18.748-3.568,33.665-18.624,37.145-37.488l0.315-1.889c0.748-4.504,1.425-9.003,2.002-13.521l-102.445,33.294
			c-13.358,4.338-27.697-2.968-32.034-16.32l-0.404-1.222l24.182-7.856l113.375-36.842L301.808,185.423z"/>
	</g>
</g>
</svg>
